<svg id="visual" viewBox="0 0 900 600" width="900" height="600" xmlns="http://www.w3.org/2000/svg" xmlns:xlink="http://www.w3.org/1999/xlink" version="1.1"><g stroke-width="0.1" stroke-linejoin="bevel"><path d="M425 287.9L431 326.9L458 330.1Z" fill="#3c3f66" stroke="#F1DAC4"></path><path d="M431 326.9L455 332.7L458 330.1Z" fill="#2d3152" stroke="#F1DAC4"></path><path d="M418 395.9L466 335.7L455 332.7Z" fill="#1f243f" stroke="#F1DAC4"></path><path d="M455 332.7L466 335.7L458 330.1Z" fill="#242845" stroke="#F1DAC4"></path><path d="M458 330.1L485 274.3L425 287.9Z" fill="#474973" stroke="#F1DAC4"></path><path d="M466 335.7L485 274.3L458 330.1Z" fill="#282c4c" stroke="#F1DAC4"></path><path d="M425 287.9L375 324L431 326.9Z" fill="#1a1f39" stroke="#F1DAC4"></path><path d="M431 326.9L418 395.9L455 332.7Z" fill="#161b33" stroke="#F1DAC4"></path><path d="M375 324L383 344L431 326.9Z" fill="#161b33" stroke="#F1DAC4"></path><path d="M466 335.7L525 301.1L485 274.3Z" fill="#474973" stroke="#F1DAC4"></path><path d="M438 222L369 280.1L425 287.9Z" fill="#242845" stroke="#F1DAC4"></path><path d="M425 287.9L369 280.1L375 324Z" fill="#161b33" stroke="#F1DAC4"></path><path d="M480 218.4L438 222L485 274.3Z" fill="#373a5f" stroke="#F1DAC4"></path><path d="M485 274.3L438 222L425 287.9Z" fill="#42446c" stroke="#F1DAC4"></path><path d="M369 280.1L363 289.9L375 324Z" fill="#42446c" stroke="#F1DAC4"></path><path d="M385 376.7L386 364.7L372 394.9Z" fill="#474973" stroke="#F1DAC4"></path><path d="M383 344L386 364.7L431 326.9Z" fill="#323658" stroke="#F1DAC4"></path><path d="M386 364.7L331 337.1L372 394.9Z" fill="#373a5f" stroke="#F1DAC4"></path><path d="M529 221.4L480 218.4L485 274.3Z" fill="#2d3152" stroke="#F1DAC4"></path><path d="M386 364.7L383 344L331 337.1Z" fill="#42446c" stroke="#F1DAC4"></path><path d="M386 364.7L418 395.9L431 326.9Z" fill="#2d3152" stroke="#F1DAC4"></path><path d="M385 376.7L418 395.9L386 364.7Z" fill="#1f243f" stroke="#F1DAC4"></path><path d="M466 335.7L528 360.6L525 301.1Z" fill="#2d3152" stroke="#F1DAC4"></path><path d="M525 301.1L541 278.1L485 274.3Z" fill="#161b33" stroke="#F1DAC4"></path><path d="M480 218.4L464 208.3L438 222Z" fill="#323658" stroke="#F1DAC4"></path><path d="M490 414.6L528 360.6L466 335.7Z" fill="#242845" stroke="#F1DAC4"></path><path d="M525 301.1L563 292.1L541 278.1Z" fill="#161b33" stroke="#F1DAC4"></path><path d="M369 280.1L344 290.1L363 289.9Z" fill="#161b33" stroke="#F1DAC4"></path><path d="M363 289.9L344 290.1L375 324Z" fill="#373a5f" stroke="#F1DAC4"></path><path d="M341 256L344 290.1L369 280.1Z" fill="#42446c" stroke="#F1DAC4"></path><path d="M582 346.9L563 292.1L525 301.1Z" fill="#242845" stroke="#F1DAC4"></path><path d="M541 278.1L529 221.4L485 274.3Z" fill="#373a5f" stroke="#F1DAC4"></path><path d="M608 261.3L529 221.4L541 278.1Z" fill="#3c3f66" stroke="#F1DAC4"></path><path d="M480 218.4L478 180.6L464 208.3Z" fill="#474973" stroke="#F1DAC4"></path><path d="M379 205.3L369 280.1L438 222Z" fill="#3c3f66" stroke="#F1DAC4"></path><path d="M379 205.3L341 256L369 280.1Z" fill="#282c4c" stroke="#F1DAC4"></path><path d="M331 337.1L383 344L375 324Z" fill="#474973" stroke="#F1DAC4"></path><path d="M385 376.7L372 394.9L418 395.9Z" fill="#242845" stroke="#F1DAC4"></path><path d="M502 443.4L490 414.6L447 458.6Z" fill="#282c4c" stroke="#F1DAC4"></path><path d="M418 395.9L490 414.6L466 335.7Z" fill="#323658" stroke="#F1DAC4"></path><path d="M452 159.4L379 205.3L438 222Z" fill="#282c4c" stroke="#F1DAC4"></path><path d="M327 279.3L331 337.1L344 290.1Z" fill="#1a1f39" stroke="#F1DAC4"></path><path d="M344 290.1L331 337.1L375 324Z" fill="#161b33" stroke="#F1DAC4"></path><path d="M341 256L327 279.3L344 290.1Z" fill="#1a1f39" stroke="#F1DAC4"></path><path d="M491 183.3L478 180.6L480 218.4Z" fill="#161b33" stroke="#F1DAC4"></path><path d="M464 208.3L452 159.4L438 222Z" fill="#2d3152" stroke="#F1DAC4"></path><path d="M427 137.7L370 202.6L379 205.3Z" fill="#42446c" stroke="#F1DAC4"></path><path d="M379 205.3L370 202.6L341 256Z" fill="#3c3f66" stroke="#F1DAC4"></path><path d="M341 256L258 277.9L327 279.3Z" fill="#2d3152" stroke="#F1DAC4"></path><path d="M529 221.4L491 183.3L480 218.4Z" fill="#323658" stroke="#F1DAC4"></path><path d="M528 415.4L553 378L528 360.6Z" fill="#373a5f" stroke="#F1DAC4"></path><path d="M528 360.6L582 346.9L525 301.1Z" fill="#242845" stroke="#F1DAC4"></path><path d="M490 414.6L528 415.4L528 360.6Z" fill="#2d3152" stroke="#F1DAC4"></path><path d="M567 400.7L569 370L553 378Z" fill="#2d3152" stroke="#F1DAC4"></path><path d="M553 378L569 370L528 360.6Z" fill="#1f243f" stroke="#F1DAC4"></path><path d="M569 370L582 346.9L528 360.6Z" fill="#474973" stroke="#F1DAC4"></path><path d="M454 115.4L452 159.4L478 180.6Z" fill="#1f243f" stroke="#F1DAC4"></path><path d="M478 180.6L452 159.4L464 208.3Z" fill="#242845" stroke="#F1DAC4"></path><path d="M567 400.7L582 362.7L569 370Z" fill="#282c4c" stroke="#F1DAC4"></path><path d="M569 370L582 362.7L582 346.9Z" fill="#2d3152" stroke="#F1DAC4"></path><path d="M447 458.6L490 414.6L418 395.9Z" fill="#3c3f66" stroke="#F1DAC4"></path><path d="M490 414.6L502 443.4L528 415.4Z" fill="#2d3152" stroke="#F1DAC4"></path><path d="M528 415.4L567 400.7L553 378Z" fill="#161b33" stroke="#F1DAC4"></path><path d="M331 337.1L340 412.6L372 394.9Z" fill="#373a5f" stroke="#F1DAC4"></path><path d="M436 468.6L447 458.6L418 395.9Z" fill="#474973" stroke="#F1DAC4"></path><path d="M595 349.6L600 317.7L582 346.9Z" fill="#282c4c" stroke="#F1DAC4"></path><path d="M582 346.9L600 317.7L563 292.1Z" fill="#474973" stroke="#F1DAC4"></path><path d="M563 292.1L608 261.3L541 278.1Z" fill="#1a1f39" stroke="#F1DAC4"></path><path d="M528 451.3L567 400.7L528 415.4Z" fill="#1f243f" stroke="#F1DAC4"></path><path d="M582 362.7L595 349.6L582 346.9Z" fill="#323658" stroke="#F1DAC4"></path><path d="M436 468.6L418 395.9L389 474.3Z" fill="#474973" stroke="#F1DAC4"></path><path d="M611 353.9L595 349.6L582 362.7Z" fill="#1f243f" stroke="#F1DAC4"></path><path d="M389 474.3L418 395.9L372 394.9Z" fill="#3c3f66" stroke="#F1DAC4"></path><path d="M464 515.3L528 451.3L502 443.4Z" fill="#282c4c" stroke="#F1DAC4"></path><path d="M600 317.7L608 261.3L563 292.1Z" fill="#242845" stroke="#F1DAC4"></path><path d="M529 221.4L592 194.6L491 183.3Z" fill="#161b33" stroke="#F1DAC4"></path><path d="M258 277.9L304 388.9L331 337.1Z" fill="#242845" stroke="#F1DAC4"></path><path d="M331 337.1L304 388.9L340 412.6Z" fill="#3c3f66" stroke="#F1DAC4"></path><path d="M502 443.4L528 451.3L528 415.4Z" fill="#3c3f66" stroke="#F1DAC4"></path><path d="M464 515.3L502 443.4L447 458.6Z" fill="#282c4c" stroke="#F1DAC4"></path><path d="M430 133.3L427 137.7L452 159.4Z" fill="#474973" stroke="#F1DAC4"></path><path d="M452 159.4L427 137.7L379 205.3Z" fill="#474973" stroke="#F1DAC4"></path><path d="M430 133.3L452 159.4L454 115.4Z" fill="#161b33" stroke="#F1DAC4"></path><path d="M600 317.7L611 262.9L608 261.3Z" fill="#2d3152" stroke="#F1DAC4"></path><path d="M608 261.3L611 254.3L529 221.4Z" fill="#42446c" stroke="#F1DAC4"></path><path d="M637 332.7L611 262.9L600 317.7Z" fill="#282c4c" stroke="#F1DAC4"></path><path d="M630 374.9L611 353.9L582 362.7Z" fill="#3c3f66" stroke="#F1DAC4"></path><path d="M595 349.6L611 353.9L600 317.7Z" fill="#1f243f" stroke="#F1DAC4"></path><path d="M637 332.7L611 353.9L641 335.1Z" fill="#1a1f39" stroke="#F1DAC4"></path><path d="M611 262.9L611 254.3L608 261.3Z" fill="#282c4c" stroke="#F1DAC4"></path><path d="M454 115.4L478 180.6L491 183.3Z" fill="#373a5f" stroke="#F1DAC4"></path><path d="M427 137.7L347 133.6L370 202.6Z" fill="#42446c" stroke="#F1DAC4"></path><path d="M329 495.1L389 474.3L340 412.6Z" fill="#161b33" stroke="#F1DAC4"></path><path d="M340 412.6L389 474.3L372 394.9Z" fill="#42446c" stroke="#F1DAC4"></path><path d="M611 254.3L592 194.6L529 221.4Z" fill="#3c3f66" stroke="#F1DAC4"></path><path d="M527 70.9L454 115.4L491 183.3Z" fill="#474973" stroke="#F1DAC4"></path><path d="M239 212.1L258 277.9L341 256Z" fill="#323658" stroke="#F1DAC4"></path><path d="M327 279.3L258 277.9L331 337.1Z" fill="#373a5f" stroke="#F1DAC4"></path><path d="M239 212.1L341 256L370 202.6Z" fill="#1f243f" stroke="#F1DAC4"></path><path d="M630 374.9L582 362.7L567 400.7Z" fill="#1f243f" stroke="#F1DAC4"></path><path d="M611 353.9L637 332.7L600 317.7Z" fill="#282c4c" stroke="#F1DAC4"></path><path d="M611 262.9L655 266L611 254.3Z" fill="#1f243f" stroke="#F1DAC4"></path><path d="M646 200.4L636 190.3L592 194.6Z" fill="#373a5f" stroke="#F1DAC4"></path><path d="M211 378.9L282 407.7L304 388.9Z" fill="#474973" stroke="#F1DAC4"></path><path d="M304 388.9L301 445.4L340 412.6Z" fill="#373a5f" stroke="#F1DAC4"></path><path d="M637 424.6L630 374.9L567 400.7Z" fill="#282c4c" stroke="#F1DAC4"></path><path d="M630 374.9L641 335.1L611 353.9Z" fill="#242845" stroke="#F1DAC4"></path><path d="M637 332.7L655 266L611 262.9Z" fill="#161b33" stroke="#F1DAC4"></path><path d="M420 102.4L427 137.7L430 133.3Z" fill="#242845" stroke="#F1DAC4"></path><path d="M420 102.4L347 133.6L427 137.7Z" fill="#3c3f66" stroke="#F1DAC4"></path><path d="M282 407.7L301 445.4L304 388.9Z" fill="#242845" stroke="#F1DAC4"></path><path d="M454 115.4L420 102.4L430 133.3Z" fill="#373a5f" stroke="#F1DAC4"></path><path d="M671 301L655 266L637 332.7Z" fill="#282c4c" stroke="#F1DAC4"></path><path d="M389 474.3L464 515.3L436 468.6Z" fill="#3c3f66" stroke="#F1DAC4"></path><path d="M436 468.6L464 515.3L447 458.6Z" fill="#3c3f66" stroke="#F1DAC4"></path><path d="M528 451.3L584 480.4L567 400.7Z" fill="#3c3f66" stroke="#F1DAC4"></path><path d="M362 504.4L464 515.3L389 474.3Z" fill="#242845" stroke="#F1DAC4"></path><path d="M527 70.9L444 89.6L454 115.4Z" fill="#42446c" stroke="#F1DAC4"></path><path d="M454 115.4L444 89.6L420 102.4Z" fill="#323658" stroke="#F1DAC4"></path><path d="M420 102.4L338 107.7L347 133.6Z" fill="#161b33" stroke="#F1DAC4"></path><path d="M255 451.7L303 464.6L301 445.4Z" fill="#474973" stroke="#F1DAC4"></path><path d="M301 445.4L303 464.6L340 412.6Z" fill="#474973" stroke="#F1DAC4"></path><path d="M355 504.4L362 504.4L389 474.3Z" fill="#323658" stroke="#F1DAC4"></path><path d="M329 495.1L355 504.4L389 474.3Z" fill="#242845" stroke="#F1DAC4"></path><path d="M391 579.3L469 534.1L464 515.3Z" fill="#323658" stroke="#F1DAC4"></path><path d="M646 200.4L592 194.6L611 254.3Z" fill="#42446c" stroke="#F1DAC4"></path><path d="M592 194.6L605 141.4L491 183.3Z" fill="#42446c" stroke="#F1DAC4"></path><path d="M556 532.3L584 480.4L528 451.3Z" fill="#282c4c" stroke="#F1DAC4"></path><path d="M641 335.1L671 301L637 332.7Z" fill="#282c4c" stroke="#F1DAC4"></path><path d="M655 266L646 200.4L611 254.3Z" fill="#373a5f" stroke="#F1DAC4"></path><path d="M664 375L671 301L641 335.1Z" fill="#282c4c" stroke="#F1DAC4"></path><path d="M664 375L641 335.1L630 374.9Z" fill="#242845" stroke="#F1DAC4"></path><path d="M681 185.1L646 200.4L655 266Z" fill="#474973" stroke="#F1DAC4"></path><path d="M584 480.4L637 424.6L567 400.7Z" fill="#2d3152" stroke="#F1DAC4"></path><path d="M303 464.6L329 495.1L340 412.6Z" fill="#282c4c" stroke="#F1DAC4"></path><path d="M362 61.9L338 107.7L420 102.4Z" fill="#242845" stroke="#F1DAC4"></path><path d="M223 260.1L222 281L258 277.9Z" fill="#2d3152" stroke="#F1DAC4"></path><path d="M239 212.1L370 202.6L238 201.3Z" fill="#42446c" stroke="#F1DAC4"></path><path d="M258 277.9L211 378.9L304 388.9Z" fill="#3c3f66" stroke="#F1DAC4"></path><path d="M306 504.6L313 502.4L303 464.6Z" fill="#282c4c" stroke="#F1DAC4"></path><path d="M637 111.9L605 141.4L636 190.3Z" fill="#282c4c" stroke="#F1DAC4"></path><path d="M636 190.3L605 141.4L592 194.6Z" fill="#1a1f39" stroke="#F1DAC4"></path><path d="M637 424.6L664 375L630 374.9Z" fill="#323658" stroke="#F1DAC4"></path><path d="M292 133.4L370 202.6L347 133.6Z" fill="#323658" stroke="#F1DAC4"></path><path d="M239 212.1L223 260.1L258 277.9Z" fill="#2d3152" stroke="#F1DAC4"></path><path d="M391 579.3L464 515.3L362 504.4Z" fill="#1a1f39" stroke="#F1DAC4"></path><path d="M464 515.3L556 532.3L528 451.3Z" fill="#323658" stroke="#F1DAC4"></path><path d="M338 107.7L292 133.4L347 133.6Z" fill="#474973" stroke="#F1DAC4"></path><path d="M292 133.4L238 201.3L370 202.6Z" fill="#1a1f39" stroke="#F1DAC4"></path><path d="M211 229L208 251L223 260.1Z" fill="#161b33" stroke="#F1DAC4"></path><path d="M255 451.7L301 445.4L282 407.7Z" fill="#161b33" stroke="#F1DAC4"></path><path d="M303 464.6L313 502.4L329 495.1Z" fill="#2d3152" stroke="#F1DAC4"></path><path d="M329 495.1L303 525.3L355 504.4Z" fill="#1f243f" stroke="#F1DAC4"></path><path d="M342 567.3L391 579.3L362 504.4Z" fill="#161b33" stroke="#F1DAC4"></path><path d="M438 57.9L434 64.7L444 89.6Z" fill="#1f243f" stroke="#F1DAC4"></path><path d="M444 89.6L434 64.7L420 102.4Z" fill="#3c3f66" stroke="#F1DAC4"></path><path d="M211 378.9L255 451.7L282 407.7Z" fill="#2d3152" stroke="#F1DAC4"></path><path d="M338 107.7L290 119.9L292 133.4Z" fill="#282c4c" stroke="#F1DAC4"></path><path d="M292 133.4L220 177.4L238 201.3Z" fill="#2d3152" stroke="#F1DAC4"></path><path d="M292 105.6L290 119.9L338 107.7Z" fill="#373a5f" stroke="#F1DAC4"></path><path d="M256 483.6L306 504.6L303 464.6Z" fill="#323658" stroke="#F1DAC4"></path><path d="M313 502.4L303 525.3L329 495.1Z" fill="#1a1f39" stroke="#F1DAC4"></path><path d="M223 260.1L208 251L222 281Z" fill="#3c3f66" stroke="#F1DAC4"></path><path d="M222 281L200 317.7L258 277.9Z" fill="#474973" stroke="#F1DAC4"></path><path d="M211 229L223 260.1L239 212.1Z" fill="#242845" stroke="#F1DAC4"></path><path d="M527 70.9L438 57.9L444 89.6Z" fill="#323658" stroke="#F1DAC4"></path><path d="M434 64.7L362 61.9L420 102.4Z" fill="#1a1f39" stroke="#F1DAC4"></path><path d="M579 92.7L527 70.9L491 183.3Z" fill="#1a1f39" stroke="#F1DAC4"></path><path d="M190 306.7L200 317.7L222 281Z" fill="#282c4c" stroke="#F1DAC4"></path><path d="M200 317.7L211 378.9L258 277.9Z" fill="#1f243f" stroke="#F1DAC4"></path><path d="M212 209.3L239 212.1L238 201.3Z" fill="#242845" stroke="#F1DAC4"></path><path d="M212 209.3L211 229L239 212.1Z" fill="#1a1f39" stroke="#F1DAC4"></path><path d="M637 111.9L579 92.7L605 141.4Z" fill="#1a1f39" stroke="#F1DAC4"></path><path d="M605 141.4L579 92.7L491 183.3Z" fill="#1f243f" stroke="#F1DAC4"></path><path d="M284 91.4L292 105.6L338 107.7Z" fill="#1f243f" stroke="#F1DAC4"></path><path d="M220 177.4L212 209.3L238 201.3Z" fill="#474973" stroke="#F1DAC4"></path><path d="M469 534.1L556 532.3L464 515.3Z" fill="#242845" stroke="#F1DAC4"></path><path d="M584 480.4L646 475.4L637 424.6Z" fill="#2d3152" stroke="#F1DAC4"></path><path d="M579 92.7L551 73.9L527 70.9Z" fill="#323658" stroke="#F1DAC4"></path><path d="M527 70.9L483 20.7L438 57.9Z" fill="#373a5f" stroke="#F1DAC4"></path><path d="M220 177.4L292 133.4L224 111.7Z" fill="#373a5f" stroke="#F1DAC4"></path><path d="M175 240L190 306.7L208 251Z" fill="#3c3f66" stroke="#F1DAC4"></path><path d="M208 251L190 306.7L222 281Z" fill="#242845" stroke="#F1DAC4"></path><path d="M200 317.7L200 366.9L211 378.9Z" fill="#474973" stroke="#F1DAC4"></path><path d="M165 422.6L256 483.6L255 451.7Z" fill="#3c3f66" stroke="#F1DAC4"></path><path d="M361 27.7L362 61.9L434 64.7Z" fill="#3c3f66" stroke="#F1DAC4"></path><path d="M175 240L208 251L211 229Z" fill="#373a5f" stroke="#F1DAC4"></path><path d="M200 317.7L154 347.7L200 366.9Z" fill="#42446c" stroke="#F1DAC4"></path><path d="M224 111.7L292 133.4L290 119.9Z" fill="#323658" stroke="#F1DAC4"></path><path d="M599 529.4L646 475.4L584 480.4Z" fill="#474973" stroke="#F1DAC4"></path><path d="M637 424.6L733 416.4L664 375Z" fill="#161b33" stroke="#F1DAC4"></path><path d="M255 451.7L256 483.6L303 464.6Z" fill="#1f243f" stroke="#F1DAC4"></path><path d="M192 408.6L255 451.7L211 378.9Z" fill="#161b33" stroke="#F1DAC4"></path><path d="M736 236.3L681 185.1L655 266Z" fill="#161b33" stroke="#F1DAC4"></path><path d="M646 200.4L681 185.1L636 190.3Z" fill="#282c4c" stroke="#F1DAC4"></path><path d="M301 526.1L303 525.3L306 504.6Z" fill="#1a1f39" stroke="#F1DAC4"></path><path d="M306 504.6L303 525.3L313 502.4Z" fill="#242845" stroke="#F1DAC4"></path><path d="M256 483.6L301 526.1L306 504.6Z" fill="#3c3f66" stroke="#F1DAC4"></path><path d="M342 567.3L362 504.4L355 504.4Z" fill="#242845" stroke="#F1DAC4"></path><path d="M517 27.9L528 49.6L532 12.7Z" fill="#3c3f66" stroke="#F1DAC4"></path><path d="M551 73.9L528 49.6L527 70.9Z" fill="#3c3f66" stroke="#F1DAC4"></path><path d="M438 57.9L361 27.7L434 64.7Z" fill="#3c3f66" stroke="#F1DAC4"></path><path d="M362 61.9L284 91.4L338 107.7Z" fill="#42446c" stroke="#F1DAC4"></path><path d="M292 105.6L284 91.4L290 119.9Z" fill="#161b33" stroke="#F1DAC4"></path><path d="M737 314.7L717 316.1L751 387.9Z" fill="#373a5f" stroke="#F1DAC4"></path><path d="M664 375L717 316.1L671 301Z" fill="#282c4c" stroke="#F1DAC4"></path><path d="M738 240L736 236.3L655 266Z" fill="#1a1f39" stroke="#F1DAC4"></path><path d="M681 185.1L637 111.9L636 190.3Z" fill="#3c3f66" stroke="#F1DAC4"></path><path d="M532 12.7L528 49.6L571 0Z" fill="#373a5f" stroke="#F1DAC4"></path><path d="M556 532.3L599 529.4L584 480.4Z" fill="#1a1f39" stroke="#F1DAC4"></path><path d="M154 347.7L192 408.6L200 366.9Z" fill="#42446c" stroke="#F1DAC4"></path><path d="M200 366.9L192 408.6L211 378.9Z" fill="#323658" stroke="#F1DAC4"></path><path d="M147 223.4L175 240L212 209.3Z" fill="#1a1f39" stroke="#F1DAC4"></path><path d="M212 209.3L175 240L211 229Z" fill="#474973" stroke="#F1DAC4"></path><path d="M190 306.7L154 347.7L200 317.7Z" fill="#1a1f39" stroke="#F1DAC4"></path><path d="M556 532.3L599 540.1L599 529.4Z" fill="#242845" stroke="#F1DAC4"></path><path d="M599 529.4L664 500.3L646 475.4Z" fill="#373a5f" stroke="#F1DAC4"></path><path d="M586 600L599 540.1L556 532.3Z" fill="#3c3f66" stroke="#F1DAC4"></path><path d="M342 567.3L355 504.4L303 525.3Z" fill="#242845" stroke="#F1DAC4"></path><path d="M469 534.1L531 588.3L556 532.3Z" fill="#282c4c" stroke="#F1DAC4"></path><path d="M291 548.4L342 567.3L303 525.3Z" fill="#161b33" stroke="#F1DAC4"></path><path d="M291 548.4L303 525.3L301 526.1Z" fill="#2d3152" stroke="#F1DAC4"></path><path d="M528 49.6L551 73.9L571 0Z" fill="#1f243f" stroke="#F1DAC4"></path><path d="M528 49.6L483 20.7L527 70.9Z" fill="#282c4c" stroke="#F1DAC4"></path><path d="M517 27.9L483 20.7L528 49.6Z" fill="#282c4c" stroke="#F1DAC4"></path><path d="M224 111.7L191 170.6L220 177.4Z" fill="#242845" stroke="#F1DAC4"></path><path d="M220 177.4L191 170.6L212 209.3Z" fill="#474973" stroke="#F1DAC4"></path><path d="M751 387.9L717 316.1L664 375Z" fill="#42446c" stroke="#F1DAC4"></path><path d="M738 240L655 266L671 301Z" fill="#3c3f66" stroke="#F1DAC4"></path><path d="M386 0L361 27.7L438 57.9Z" fill="#242845" stroke="#F1DAC4"></path><path d="M362 61.9L297 0L284 91.4Z" fill="#474973" stroke="#F1DAC4"></path><path d="M239 548.3L301 526.1L256 483.6Z" fill="#2d3152" stroke="#F1DAC4"></path><path d="M239 548.3L291 548.4L301 526.1Z" fill="#1a1f39" stroke="#F1DAC4"></path><path d="M620 544.1L664 500.3L599 529.4Z" fill="#1f243f" stroke="#F1DAC4"></path><path d="M646 475.4L733 416.4L637 424.6Z" fill="#2d3152" stroke="#F1DAC4"></path><path d="M248 64.7L224 111.7L284 91.4Z" fill="#474973" stroke="#F1DAC4"></path><path d="M284 91.4L224 111.7L290 119.9Z" fill="#474973" stroke="#F1DAC4"></path><path d="M586 600L620 544.1L599 540.1Z" fill="#1a1f39" stroke="#F1DAC4"></path><path d="M599 540.1L620 544.1L599 529.4Z" fill="#282c4c" stroke="#F1DAC4"></path><path d="M518 600L531 588.3L469 534.1Z" fill="#161b33" stroke="#F1DAC4"></path><path d="M738 240L671 301L717 316.1Z" fill="#242845" stroke="#F1DAC4"></path><path d="M681 185.1L696 133.7L637 111.9Z" fill="#242845" stroke="#F1DAC4"></path><path d="M129 322.1L154 347.7L190 306.7Z" fill="#1f243f" stroke="#F1DAC4"></path><path d="M351 600L414 600L391 579.3Z" fill="#242845" stroke="#F1DAC4"></path><path d="M391 579.3L414 600L469 534.1Z" fill="#3c3f66" stroke="#F1DAC4"></path><path d="M351 600L391 579.3L342 567.3Z" fill="#323658" stroke="#F1DAC4"></path><path d="M748 252L738 240L717 316.1Z" fill="#3c3f66" stroke="#F1DAC4"></path><path d="M696 133.7L681 185.1L748 162.4Z" fill="#1a1f39" stroke="#F1DAC4"></path><path d="M732 133.3L696 133.7L748 162.4Z" fill="#474973" stroke="#F1DAC4"></path><path d="M571 0L551 73.9L589 0Z" fill="#1f243f" stroke="#F1DAC4"></path><path d="M148 236.4L152 241.4L147 223.4Z" fill="#2d3152" stroke="#F1DAC4"></path><path d="M175 240L146 248.3L190 306.7Z" fill="#3c3f66" stroke="#F1DAC4"></path><path d="M696 133.7L692 125.6L637 111.9Z" fill="#474973" stroke="#F1DAC4"></path><path d="M517 27.9L487 0L483 20.7Z" fill="#474973" stroke="#F1DAC4"></path><path d="M483 20.7L461 0L438 57.9Z" fill="#1f243f" stroke="#F1DAC4"></path><path d="M551 73.9L579 92.7L589 0Z" fill="#373a5f" stroke="#F1DAC4"></path><path d="M438 622.1L518 600L469 534.1Z" fill="#2d3152" stroke="#F1DAC4"></path><path d="M531 588.3L544 600L556 532.3Z" fill="#2d3152" stroke="#F1DAC4"></path><path d="M487 0L461 0L483 20.7Z" fill="#474973" stroke="#F1DAC4"></path><path d="M737 314.7L748 252L717 316.1Z" fill="#474973" stroke="#F1DAC4"></path><path d="M784 220.3L778 203.1L736 236.3Z" fill="#161b33" stroke="#F1DAC4"></path><path d="M147 413.4L165 422.6L192 408.6Z" fill="#2d3152" stroke="#F1DAC4"></path><path d="M192 408.6L165 422.6L255 451.7Z" fill="#282c4c" stroke="#F1DAC4"></path><path d="M148 236.4L146 248.3L152 241.4Z" fill="#474973" stroke="#F1DAC4"></path><path d="M152 241.4L146 248.3L175 240Z" fill="#242845" stroke="#F1DAC4"></path><path d="M152 241.4L175 240L147 223.4Z" fill="#323658" stroke="#F1DAC4"></path><path d="M742 440.6L733 416.4L646 475.4Z" fill="#42446c" stroke="#F1DAC4"></path><path d="M737 314.7L762 272.1L748 252Z" fill="#1f243f" stroke="#F1DAC4"></path><path d="M518 0L487 0L517 27.9Z" fill="#242845" stroke="#F1DAC4"></path><path d="M147 223.4L212 209.3L191 170.6Z" fill="#42446c" stroke="#F1DAC4"></path><path d="M487 0L429 -5.1L461 0Z" fill="#373a5f" stroke="#F1DAC4"></path><path d="M461 0L429 -5.1L438 57.9Z" fill="#161b33" stroke="#F1DAC4"></path><path d="M518 600L542 600L531 588.3Z" fill="#1a1f39" stroke="#F1DAC4"></path><path d="M429 -5.1L386 0L438 57.9Z" fill="#474973" stroke="#F1DAC4"></path><path d="M297 0L248 64.7L284 91.4Z" fill="#323658" stroke="#F1DAC4"></path><path d="M348 600L351 600L342 567.3Z" fill="#242845" stroke="#F1DAC4"></path><path d="M542 600L544 600L531 588.3Z" fill="#282c4c" stroke="#F1DAC4"></path><path d="M131 207.6L147 223.4L191 170.6Z" fill="#2d3152" stroke="#F1DAC4"></path><path d="M148 236.4L130 254.3L146 248.3Z" fill="#282c4c" stroke="#F1DAC4"></path><path d="M297 0L362 61.9L361 27.7Z" fill="#373a5f" stroke="#F1DAC4"></path><path d="M121 209.1L131 207.6L92 147.6Z" fill="#161b33" stroke="#F1DAC4"></path><path d="M344 600L348 600L342 567.3Z" fill="#2d3152" stroke="#F1DAC4"></path><path d="M429 -5.1L377 0L386 0Z" fill="#161b33" stroke="#F1DAC4"></path><path d="M386 0L377 0L361 27.7Z" fill="#282c4c" stroke="#F1DAC4"></path><path d="M532 12.7L518 0L517 27.9Z" fill="#2d3152" stroke="#F1DAC4"></path><path d="M487 0L518 0L429 -5.1Z" fill="#3c3f66" stroke="#F1DAC4"></path><path d="M519 0L518 0L532 12.7Z" fill="#474973" stroke="#F1DAC4"></path><path d="M571 0L519 0L532 12.7Z" fill="#2d3152" stroke="#F1DAC4"></path><path d="M518 0L519 0L429 -5.1Z" fill="#3c3f66" stroke="#F1DAC4"></path><path d="M282 599.1L344 600L342 567.3Z" fill="#474973" stroke="#F1DAC4"></path><path d="M733 416.4L751 387.9L664 375Z" fill="#161b33" stroke="#F1DAC4"></path><path d="M796 351L762 272.1L737 314.7Z" fill="#161b33" stroke="#F1DAC4"></path><path d="M748 162.4L681 185.1L736 236.3Z" fill="#242845" stroke="#F1DAC4"></path><path d="M518 600L518 613.1L542 600Z" fill="#373a5f" stroke="#F1DAC4"></path><path d="M542 600L518 613.1L544 600Z" fill="#282c4c" stroke="#F1DAC4"></path><path d="M438 622.1L518 613.1L518 600Z" fill="#1a1f39" stroke="#F1DAC4"></path><path d="M438 622.1L469 534.1L414 600Z" fill="#242845" stroke="#F1DAC4"></path><path d="M438 622.1L414 600L351 600Z" fill="#373a5f" stroke="#F1DAC4"></path><path d="M438 622.1L351 600L348 600Z" fill="#2d3152" stroke="#F1DAC4"></path><path d="M344 600L438 622.1L348 600Z" fill="#323658" stroke="#F1DAC4"></path><path d="M620 544.1L665 536.3L664 500.3Z" fill="#1f243f" stroke="#F1DAC4"></path><path d="M709 497.1L742 440.6L646 475.4Z" fill="#1f243f" stroke="#F1DAC4"></path><path d="M733 416.4L755 440.6L751 387.9Z" fill="#323658" stroke="#F1DAC4"></path><path d="M650 600L665 536.3L620 544.1Z" fill="#42446c" stroke="#F1DAC4"></path><path d="M146 248.3L129 322.1L190 306.7Z" fill="#323658" stroke="#F1DAC4"></path><path d="M154 347.7L147 413.4L192 408.6Z" fill="#373a5f" stroke="#F1DAC4"></path><path d="M130 254.3L129 322.1L146 248.3Z" fill="#42446c" stroke="#F1DAC4"></path><path d="M133 415.4L147 413.4L154 347.7Z" fill="#1a1f39" stroke="#F1DAC4"></path><path d="M146 511.3L239 548.3L256 483.6Z" fill="#161b33" stroke="#F1DAC4"></path><path d="M291 548.4L282 599.1L342 567.3Z" fill="#42446c" stroke="#F1DAC4"></path><path d="M146 511.3L256 483.6L165 422.6Z" fill="#282c4c" stroke="#F1DAC4"></path><path d="M123 222L130 254.3L148 236.4Z" fill="#1f243f" stroke="#F1DAC4"></path><path d="M709 497.1L646 475.4L664 500.3Z" fill="#474973" stroke="#F1DAC4"></path><path d="M709 504.3L709 497.1L664 500.3Z" fill="#1a1f39" stroke="#F1DAC4"></path><path d="M575 631.1L586 600L544 600Z" fill="#42446c" stroke="#F1DAC4"></path><path d="M544 600L586 600L556 532.3Z" fill="#242845" stroke="#F1DAC4"></path><path d="M589 0L579 92.7L637 0Z" fill="#242845" stroke="#F1DAC4"></path><path d="M519 0L571 0L429 -5.1Z" fill="#1f243f" stroke="#F1DAC4"></path><path d="M665 536.3L709 504.3L664 500.3Z" fill="#42446c" stroke="#F1DAC4"></path><path d="M736 500.6L755 440.6L742 440.6Z" fill="#1f243f" stroke="#F1DAC4"></path><path d="M709 497.1L709 504.3L730 511.4Z" fill="#282c4c" stroke="#F1DAC4"></path><path d="M131 207.6L191 170.6L92 147.6Z" fill="#3c3f66" stroke="#F1DAC4"></path><path d="M147 223.4L127 220.3L148 236.4Z" fill="#474973" stroke="#F1DAC4"></path><path d="M131 207.6L127 220.3L147 223.4Z" fill="#1a1f39" stroke="#F1DAC4"></path><path d="M130 254.3L87 338.9L129 322.1Z" fill="#3c3f66" stroke="#F1DAC4"></path><path d="M696 133.7L723 110.7L692 125.6Z" fill="#282c4c" stroke="#F1DAC4"></path><path d="M637 0L579 92.7L637 111.9Z" fill="#373a5f" stroke="#F1DAC4"></path><path d="M748 162.4L736 236.3L778 203.1Z" fill="#474973" stroke="#F1DAC4"></path><path d="M736 236.3L738 240L784 220.3Z" fill="#323658" stroke="#F1DAC4"></path><path d="M86 377.6L133 415.4L154 347.7Z" fill="#1a1f39" stroke="#F1DAC4"></path><path d="M147 413.4L133 415.4L165 422.6Z" fill="#2d3152" stroke="#F1DAC4"></path><path d="M121 209.1L123 222L127 220.3Z" fill="#323658" stroke="#F1DAC4"></path><path d="M127 220.3L123 222L148 236.4Z" fill="#2d3152" stroke="#F1DAC4"></path><path d="M129 322.1L87 363.7L154 347.7Z" fill="#373a5f" stroke="#F1DAC4"></path><path d="M712 89.6L637 111.9L692 125.6Z" fill="#1f243f" stroke="#F1DAC4"></path><path d="M571 0L223 -38.1L429 -5.1Z" fill="#474973" stroke="#F1DAC4"></path><path d="M736 500.6L742 440.6L709 497.1Z" fill="#2d3152" stroke="#F1DAC4"></path><path d="M742 440.6L755 440.6L733 416.4Z" fill="#2d3152" stroke="#F1DAC4"></path><path d="M834 197.4L784 220.3L900 242.1Z" fill="#1f243f" stroke="#F1DAC4"></path><path d="M747 119.6L723 110.7L732 133.3Z" fill="#323658" stroke="#F1DAC4"></path><path d="M732 133.3L723 110.7L696 133.7Z" fill="#242845" stroke="#F1DAC4"></path><path d="M239 548.3L282 599.1L291 548.4Z" fill="#323658" stroke="#F1DAC4"></path><path d="M344 600L216 625.1L438 622.1Z" fill="#474973" stroke="#F1DAC4"></path><path d="M258 -21.1L297 0L377 0Z" fill="#3c3f66" stroke="#F1DAC4"></path><path d="M377 0L297 0L361 27.7Z" fill="#323658" stroke="#F1DAC4"></path><path d="M170 79.9L191 170.6L224 111.7Z" fill="#42446c" stroke="#F1DAC4"></path><path d="M202 55.7L224 111.7L248 64.7Z" fill="#282c4c" stroke="#F1DAC4"></path><path d="M131 207.6L121 209.1L127 220.3Z" fill="#1a1f39" stroke="#F1DAC4"></path><path d="M123 222L114 218.3L130 254.3Z" fill="#474973" stroke="#F1DAC4"></path><path d="M723 110.7L712 89.6L692 125.6Z" fill="#242845" stroke="#F1DAC4"></path><path d="M121 209.1L114 218.3L123 222Z" fill="#3c3f66" stroke="#F1DAC4"></path><path d="M752 123.7L747 119.6L732 133.3Z" fill="#474973" stroke="#F1DAC4"></path><path d="M723 110.7L734 98.4L712 89.6Z" fill="#1f243f" stroke="#F1DAC4"></path><path d="M784 220.3L738 240L748 252Z" fill="#3c3f66" stroke="#F1DAC4"></path><path d="M784 220.3L748 252L762 272.1Z" fill="#373a5f" stroke="#F1DAC4"></path><path d="M796 351L737 314.7L751 387.9Z" fill="#2d3152" stroke="#F1DAC4"></path><path d="M790 423.4L786 387.9L751 387.9Z" fill="#373a5f" stroke="#F1DAC4"></path><path d="M730 511.4L736 500.6L709 497.1Z" fill="#3c3f66" stroke="#F1DAC4"></path><path d="M790 423.4L797 399.9L786 387.9Z" fill="#474973" stroke="#F1DAC4"></path><path d="M730 511.4L709 504.3L729 536.4Z" fill="#282c4c" stroke="#F1DAC4"></path><path d="M252 0L202 55.7L248 64.7Z" fill="#42446c" stroke="#F1DAC4"></path><path d="M121 209.1L81 147.7L114 218.3Z" fill="#2d3152" stroke="#F1DAC4"></path><path d="M729 536.4L709 504.3L665 536.3Z" fill="#474973" stroke="#F1DAC4"></path><path d="M518 613.1L575 631.1L544 600Z" fill="#3c3f66" stroke="#F1DAC4"></path><path d="M586 600L650 600L620 544.1Z" fill="#1f243f" stroke="#F1DAC4"></path><path d="M438 622.1L575 631.1L518 613.1Z" fill="#282c4c" stroke="#F1DAC4"></path><path d="M786 387.9L796 351L751 387.9Z" fill="#242845" stroke="#F1DAC4"></path><path d="M752 123.7L732 133.3L748 162.4Z" fill="#1a1f39" stroke="#F1DAC4"></path><path d="M747 119.6L734 98.4L723 110.7Z" fill="#323658" stroke="#F1DAC4"></path><path d="M672 10.9L637 0L637 111.9Z" fill="#282c4c" stroke="#F1DAC4"></path><path d="M792 155.4L752 123.7L748 162.4Z" fill="#373a5f" stroke="#F1DAC4"></path><path d="M747 119.6L737 94.4L734 98.4Z" fill="#3c3f66" stroke="#F1DAC4"></path><path d="M792 155.4L748 162.4L778 203.1Z" fill="#474973" stroke="#F1DAC4"></path><path d="M785 523.1L774 447.7L736 500.6Z" fill="#282c4c" stroke="#F1DAC4"></path><path d="M736 500.6L774 447.7L755 440.6Z" fill="#42446c" stroke="#F1DAC4"></path><path d="M786 387.9L797 399.9L796 351Z" fill="#161b33" stroke="#F1DAC4"></path><path d="M202 55.7L170 79.9L224 111.7Z" fill="#373a5f" stroke="#F1DAC4"></path><path d="M752 123.7L737 94.4L747 119.6Z" fill="#1a1f39" stroke="#F1DAC4"></path><path d="M734 98.4L737 94.4L712 89.6Z" fill="#3c3f66" stroke="#F1DAC4"></path><path d="M618 636.1L650 600L586 600Z" fill="#1f243f" stroke="#F1DAC4"></path><path d="M672 10.9L637 111.9L680 15.7Z" fill="#42446c" stroke="#F1DAC4"></path><path d="M223 -38.1L377 0L429 -5.1Z" fill="#282c4c" stroke="#F1DAC4"></path><path d="M737 94.4L722 73.6L712 89.6Z" fill="#373a5f" stroke="#F1DAC4"></path><path d="M168 0L174 69.6L202 55.7Z" fill="#242845" stroke="#F1DAC4"></path><path d="M202 55.7L174 69.6L170 79.9Z" fill="#161b33" stroke="#F1DAC4"></path><path d="M170 79.9L92 147.6L191 170.6Z" fill="#161b33" stroke="#F1DAC4"></path><path d="M297 0L252 0L248 64.7Z" fill="#323658" stroke="#F1DAC4"></path><path d="M258 -21.1L252 0L297 0Z" fill="#2d3152" stroke="#F1DAC4"></path><path d="M42 334L87 338.9L15 300.1Z" fill="#323658" stroke="#F1DAC4"></path><path d="M233 600L238 600L239 548.3Z" fill="#323658" stroke="#F1DAC4"></path><path d="M239 548.3L238 600L282 599.1Z" fill="#1a1f39" stroke="#F1DAC4"></path><path d="M282 599.1L216 625.1L344 600Z" fill="#373a5f" stroke="#F1DAC4"></path><path d="M233 600L239 548.3L159 600Z" fill="#42446c" stroke="#F1DAC4"></path><path d="M790 423.4L751 387.9L755 440.6Z" fill="#323658" stroke="#F1DAC4"></path><path d="M774 447.7L790 423.4L755 440.6Z" fill="#373a5f" stroke="#F1DAC4"></path><path d="M700 579.3L729 536.4L665 536.3Z" fill="#1f243f" stroke="#F1DAC4"></path><path d="M730 511.4L785 523.1L736 500.6Z" fill="#282c4c" stroke="#F1DAC4"></path><path d="M774 447.7L795 428.7L790 423.4Z" fill="#42446c" stroke="#F1DAC4"></path><path d="M146 511.3L165 422.6L121 498.6Z" fill="#474973" stroke="#F1DAC4"></path><path d="M238 600L216 625.1L282 599.1Z" fill="#242845" stroke="#F1DAC4"></path><path d="M87 338.9L87 363.7L129 322.1Z" fill="#1a1f39" stroke="#F1DAC4"></path><path d="M121 498.6L165 422.6L133 415.4Z" fill="#42446c" stroke="#F1DAC4"></path><path d="M168 0L160 76.6L174 69.6Z" fill="#2d3152" stroke="#F1DAC4"></path><path d="M174 69.6L160 76.6L170 79.9Z" fill="#1a1f39" stroke="#F1DAC4"></path><path d="M60 404.4L86 377.6L42 334Z" fill="#3c3f66" stroke="#F1DAC4"></path><path d="M87 363.7L86 377.6L154 347.7Z" fill="#474973" stroke="#F1DAC4"></path><path d="M826 475.6L795 428.7L774 447.7Z" fill="#1f243f" stroke="#F1DAC4"></path><path d="M790 423.4L795 428.7L797 399.9Z" fill="#42446c" stroke="#F1DAC4"></path><path d="M680 15.7L637 111.9L712 89.6Z" fill="#282c4c" stroke="#F1DAC4"></path><path d="M722 73.6L680 15.7L712 89.6Z" fill="#242845" stroke="#F1DAC4"></path><path d="M650 600L673 600L665 536.3Z" fill="#2d3152" stroke="#F1DAC4"></path><path d="M618 636.1L673 600L650 600Z" fill="#161b33" stroke="#F1DAC4"></path><path d="M575 631.1L618 636.1L586 600Z" fill="#282c4c" stroke="#F1DAC4"></path><path d="M438 622.1L618 636.1L575 631.1Z" fill="#282c4c" stroke="#F1DAC4"></path><path d="M673 600L700 579.3L665 536.3Z" fill="#282c4c" stroke="#F1DAC4"></path><path d="M752 123.7L798 54.6L737 94.4Z" fill="#323658" stroke="#F1DAC4"></path><path d="M745 0L711 1.9L722 73.6Z" fill="#161b33" stroke="#F1DAC4"></path><path d="M722 73.6L711 1.9L680 15.7Z" fill="#323658" stroke="#F1DAC4"></path><path d="M834 197.4L792 155.4L778 203.1Z" fill="#323658" stroke="#F1DAC4"></path><path d="M834 197.4L778 203.1L784 220.3Z" fill="#323658" stroke="#F1DAC4"></path><path d="M784 220.3L762 272.1L854 336Z" fill="#1f243f" stroke="#F1DAC4"></path><path d="M223 -38.1L258 -21.1L377 0Z" fill="#282c4c" stroke="#F1DAC4"></path><path d="M252 0L205 0L202 55.7Z" fill="#42446c" stroke="#F1DAC4"></path><path d="M223 -38.1L571 0L589 0Z" fill="#1f243f" stroke="#F1DAC4"></path><path d="M60 404.4L121 498.6L133 415.4Z" fill="#3c3f66" stroke="#F1DAC4"></path><path d="M159 600L216 625.1L233 600Z" fill="#242845" stroke="#F1DAC4"></path><path d="M160 76.6L92 147.6L170 79.9Z" fill="#242845" stroke="#F1DAC4"></path><path d="M15 300.1L87 338.9L130 254.3Z" fill="#3c3f66" stroke="#F1DAC4"></path><path d="M223 -38.1L205 0L252 0Z" fill="#474973" stroke="#F1DAC4"></path><path d="M75 113.7L81 147.7L92 147.6Z" fill="#42446c" stroke="#F1DAC4"></path><path d="M159 600L239 548.3L146 511.3Z" fill="#2d3152" stroke="#F1DAC4"></path><path d="M233 600L216 625.1L238 600Z" fill="#242845" stroke="#F1DAC4"></path><path d="M438 622.1L216 625.1L618 636.1Z" fill="#42446c" stroke="#F1DAC4"></path><path d="M98 84.9L92 147.6L160 76.6Z" fill="#373a5f" stroke="#F1DAC4"></path><path d="M92 147.6L81 147.7L121 209.1Z" fill="#3c3f66" stroke="#F1DAC4"></path><path d="M42 334L86 377.6L87 363.7Z" fill="#373a5f" stroke="#F1DAC4"></path><path d="M223 -38.1L189 0.9L205 0Z" fill="#42446c" stroke="#F1DAC4"></path><path d="M205 0L189 0.9L202 55.7Z" fill="#42446c" stroke="#F1DAC4"></path><path d="M42 334L87 363.7L87 338.9Z" fill="#42446c" stroke="#F1DAC4"></path><path d="M86 377.6L60 404.4L133 415.4Z" fill="#42446c" stroke="#F1DAC4"></path><path d="M854 336L796 351L797 399.9Z" fill="#2d3152" stroke="#F1DAC4"></path><path d="M854 336L762 272.1L796 351Z" fill="#42446c" stroke="#F1DAC4"></path><path d="M745 0L722 73.6L799 43.7Z" fill="#42446c" stroke="#F1DAC4"></path><path d="M672 10.9L711 1.9L637 0Z" fill="#1a1f39" stroke="#F1DAC4"></path><path d="M637 0L223 -38.1L589 0Z" fill="#323658" stroke="#F1DAC4"></path><path d="M680 15.7L711 1.9L672 10.9Z" fill="#3c3f66" stroke="#F1DAC4"></path><path d="M722 73.6L737 94.4L798 54.6Z" fill="#42446c" stroke="#F1DAC4"></path><path d="M729 536.4L785 523.1L730 511.4Z" fill="#3c3f66" stroke="#F1DAC4"></path><path d="M888 376.6L854 336L797 399.9Z" fill="#474973" stroke="#F1DAC4"></path><path d="M774 600L785 523.1L729 536.4Z" fill="#1a1f39" stroke="#F1DAC4"></path><path d="M739 598.1L729 536.4L700 579.3Z" fill="#161b33" stroke="#F1DAC4"></path><path d="M15 300.1L130 254.3L114 218.3Z" fill="#323658" stroke="#F1DAC4"></path><path d="M870 419.4L797 399.9L795 428.7Z" fill="#323658" stroke="#F1DAC4"></path><path d="M774 -3.1L223 -38.1L637 0Z" fill="#373a5f" stroke="#F1DAC4"></path><path d="M258 -21.1L223 -38.1L252 0Z" fill="#474973" stroke="#F1DAC4"></path><path d="M82 535.3L110 537.1L121 498.6Z" fill="#161b33" stroke="#F1DAC4"></path><path d="M121 498.6L110 537.1L146 511.3Z" fill="#3c3f66" stroke="#F1DAC4"></path><path d="M618 636.1L733 600L673 600Z" fill="#242845" stroke="#F1DAC4"></path><path d="M673 600L733 600L700 579.3Z" fill="#1f243f" stroke="#F1DAC4"></path><path d="M100 66.9L98 84.9L160 76.6Z" fill="#242845" stroke="#F1DAC4"></path><path d="M168 0L202 55.7L189 0.9Z" fill="#1f243f" stroke="#F1DAC4"></path><path d="M153 600L159 600L128 583.3Z" fill="#323658" stroke="#F1DAC4"></path><path d="M223 -38.1L168 0L189 0.9Z" fill="#474973" stroke="#F1DAC4"></path><path d="M774 600L739 598.1L733 600Z" fill="#1a1f39" stroke="#F1DAC4"></path><path d="M733 600L739 598.1L700 579.3Z" fill="#282c4c" stroke="#F1DAC4"></path><path d="M888 503.3L826 475.6L874 567.1Z" fill="#242845" stroke="#F1DAC4"></path><path d="M785 523.1L826 475.6L774 447.7Z" fill="#373a5f" stroke="#F1DAC4"></path><path d="M128 583.3L159 600L146 511.3Z" fill="#474973" stroke="#F1DAC4"></path><path d="M159 600L153 600L216 625.1Z" fill="#242845" stroke="#F1DAC4"></path><path d="M98 84.9L75 113.7L92 147.6Z" fill="#242845" stroke="#F1DAC4"></path><path d="M0 268.1L15 300.1L0 257Z" fill="#42446c" stroke="#F1DAC4"></path><path d="M168 0L100 66.9L160 76.6Z" fill="#323658" stroke="#F1DAC4"></path><path d="M98 84.9L74 65.7L75 113.7Z" fill="#1a1f39" stroke="#F1DAC4"></path><path d="M110 537.1L128 583.3L146 511.3Z" fill="#242845" stroke="#F1DAC4"></path><path d="M798 54.6L752 123.7L792 155.4Z" fill="#2d3152" stroke="#F1DAC4"></path><path d="M711 1.9L774 -3.1L637 0Z" fill="#42446c" stroke="#F1DAC4"></path><path d="M851 83.9L798 54.6L792 155.4Z" fill="#1f243f" stroke="#F1DAC4"></path><path d="M0 470.3L82 535.3L121 498.6Z" fill="#2d3152" stroke="#F1DAC4"></path><path d="M110 537.1L100 580.1L128 583.3Z" fill="#474973" stroke="#F1DAC4"></path><path d="M78 546.4L82 535.3L15 544.3Z" fill="#2d3152" stroke="#F1DAC4"></path><path d="M25 190.1L114 218.3L81 147.7Z" fill="#1f243f" stroke="#F1DAC4"></path><path d="M42 334L2 373.7L60 404.4Z" fill="#161b33" stroke="#F1DAC4"></path><path d="M0 150.7L25 190.1L81 147.7Z" fill="#1f243f" stroke="#F1DAC4"></path><path d="M0 181.4L25 190.1L0 150.7Z" fill="#373a5f" stroke="#F1DAC4"></path><path d="M806 28.9L799 43.7L822 33.7Z" fill="#373a5f" stroke="#F1DAC4"></path><path d="M798 54.6L799 43.7L722 73.6Z" fill="#242845" stroke="#F1DAC4"></path><path d="M826 475.6L870 419.4L795 428.7Z" fill="#2d3152" stroke="#F1DAC4"></path><path d="M900 242.1L884 208.1L834 197.4Z" fill="#282c4c" stroke="#F1DAC4"></path><path d="M900 392.4L870 419.4L900 421.9Z" fill="#1f243f" stroke="#F1DAC4"></path><path d="M799 43.7L765 0L745 0Z" fill="#3c3f66" stroke="#F1DAC4"></path><path d="M745 0L774 -3.1L711 1.9Z" fill="#1f243f" stroke="#F1DAC4"></path><path d="M618 636.1L774 600L733 600Z" fill="#474973" stroke="#F1DAC4"></path><path d="M739 598.1L774 600L729 536.4Z" fill="#3c3f66" stroke="#F1DAC4"></path><path d="M0 470.3L121 498.6L60 404.4Z" fill="#42446c" stroke="#F1DAC4"></path><path d="M82 535.3L78 546.4L110 537.1Z" fill="#474973" stroke="#F1DAC4"></path><path d="M57 0L74 65.7L100 66.9Z" fill="#2d3152" stroke="#F1DAC4"></path><path d="M100 66.9L74 65.7L98 84.9Z" fill="#323658" stroke="#F1DAC4"></path><path d="M78 546.4L100 580.1L110 537.1Z" fill="#373a5f" stroke="#F1DAC4"></path><path d="M128 583.3L106 610.1L153 600Z" fill="#2d3152" stroke="#F1DAC4"></path><path d="M153 600L106 610.1L216 625.1Z" fill="#323658" stroke="#F1DAC4"></path><path d="M870 419.4L888 376.6L797 399.9Z" fill="#242845" stroke="#F1DAC4"></path><path d="M892 117.6L851 83.9L792 155.4Z" fill="#2d3152" stroke="#F1DAC4"></path><path d="M900 242.1L784 220.3L854 336Z" fill="#282c4c" stroke="#F1DAC4"></path><path d="M0 268.1L0 298.9L15 300.1Z" fill="#1a1f39" stroke="#F1DAC4"></path><path d="M15 300.1L0 348.6L42 334Z" fill="#1a1f39" stroke="#F1DAC4"></path><path d="M783 0L774 -3.1L765 0Z" fill="#161b33" stroke="#F1DAC4"></path><path d="M765 0L774 -3.1L745 0Z" fill="#474973" stroke="#F1DAC4"></path><path d="M0 257L15 300.1L114 218.3Z" fill="#3c3f66" stroke="#F1DAC4"></path><path d="M0 298.9L0 348.6L15 300.1Z" fill="#2d3152" stroke="#F1DAC4"></path><path d="M25 190.1L0 257L114 218.3Z" fill="#1f243f" stroke="#F1DAC4"></path><path d="M0 348.6L2 373.7L42 334Z" fill="#3c3f66" stroke="#F1DAC4"></path><path d="M822 33.7L799 43.7L798 54.6Z" fill="#3c3f66" stroke="#F1DAC4"></path><path d="M799 43.7L783 0L765 0Z" fill="#161b33" stroke="#F1DAC4"></path><path d="M806 28.9L783 0L799 43.7Z" fill="#1a1f39" stroke="#F1DAC4"></path><path d="M900 392.4L900 348.7L888 376.6Z" fill="#323658" stroke="#F1DAC4"></path><path d="M888 376.6L900 348.7L854 336Z" fill="#2d3152" stroke="#F1DAC4"></path><path d="M0 181.4L0 215.3L25 190.1Z" fill="#282c4c" stroke="#F1DAC4"></path><path d="M25 190.1L0 215.3L0 257Z" fill="#323658" stroke="#F1DAC4"></path><path d="M919 300.9L900 242.1L854 336Z" fill="#323658" stroke="#F1DAC4"></path><path d="M892 117.6L792 155.4L834 197.4Z" fill="#373a5f" stroke="#F1DAC4"></path><path d="M900 242.1L900 238.3L884 208.1Z" fill="#3c3f66" stroke="#F1DAC4"></path><path d="M84 600L100 580.1L68 600Z" fill="#373a5f" stroke="#F1DAC4"></path><path d="M84 600L106 610.1L100 580.1Z" fill="#373a5f" stroke="#F1DAC4"></path><path d="M100 580.1L106 610.1L128 583.3Z" fill="#42446c" stroke="#F1DAC4"></path><path d="M900 238.3L900 223L884 208.1Z" fill="#1f243f" stroke="#F1DAC4"></path><path d="M900 153.4L834 197.4L884 208.1Z" fill="#161b33" stroke="#F1DAC4"></path><path d="M806 28.9L822 33.7L783 0Z" fill="#373a5f" stroke="#F1DAC4"></path><path d="M870 419.4L900 392.4L888 376.6Z" fill="#373a5f" stroke="#F1DAC4"></path><path d="M900 421.9L870 419.4L900 454.6Z" fill="#282c4c" stroke="#F1DAC4"></path><path d="M851 83.9L822 33.7L798 54.6Z" fill="#42446c" stroke="#F1DAC4"></path><path d="M-19 401.9L0 420.7L2 373.7Z" fill="#1a1f39" stroke="#F1DAC4"></path><path d="M2 373.7L0 420.7L60 404.4Z" fill="#282c4c" stroke="#F1DAC4"></path><path d="M618 636.1L803 600L774 600Z" fill="#373a5f" stroke="#F1DAC4"></path><path d="M774 600L803 600L785 523.1Z" fill="#282c4c" stroke="#F1DAC4"></path><path d="M0 150.7L81 147.7L75 113.7Z" fill="#3c3f66" stroke="#F1DAC4"></path><path d="M900 454.6L870 419.4L826 475.6Z" fill="#161b33" stroke="#F1DAC4"></path><path d="M0 181.4L-10 204.4L0 215.3Z" fill="#42446c" stroke="#F1DAC4"></path><path d="M0 215.3L-10 204.4L0 257Z" fill="#42446c" stroke="#F1DAC4"></path><path d="M0 257L-10 204.4L0 268.1Z" fill="#242845" stroke="#F1DAC4"></path><path d="M0 268.1L-10 204.4L0 298.9Z" fill="#161b33" stroke="#F1DAC4"></path><path d="M0 298.9L-19 401.9L0 348.6Z" fill="#3c3f66" stroke="#F1DAC4"></path><path d="M0 348.6L-19 401.9L2 373.7Z" fill="#242845" stroke="#F1DAC4"></path><path d="M68 600L100 580.1L78 546.4Z" fill="#161b33" stroke="#F1DAC4"></path><path d="M-19 401.9L0 447.4L0 420.7Z" fill="#323658" stroke="#F1DAC4"></path><path d="M0 420.7L0 447.4L60 404.4Z" fill="#242845" stroke="#F1DAC4"></path><path d="M900 238.3L920 174.3L900 223Z" fill="#3c3f66" stroke="#F1DAC4"></path><path d="M900 242.1L919 300.9L900 238.3Z" fill="#1f243f" stroke="#F1DAC4"></path><path d="M900 348.7L919 300.9L854 336Z" fill="#1a1f39" stroke="#F1DAC4"></path><path d="M929 452.7L919 300.9L900 348.7Z" fill="#1a1f39" stroke="#F1DAC4"></path><path d="M929 452.7L900 348.7L900 392.4Z" fill="#282c4c" stroke="#F1DAC4"></path><path d="M0 70.6L0 150.7L75 113.7Z" fill="#1f243f" stroke="#F1DAC4"></path><path d="M0 181.4L0 150.7L-10 204.4Z" fill="#282c4c" stroke="#F1DAC4"></path><path d="M-10 204.4L-19 401.9L0 298.9Z" fill="#1a1f39" stroke="#F1DAC4"></path><path d="M888 503.3L900 454.6L826 475.6Z" fill="#323658" stroke="#F1DAC4"></path><path d="M900 421.9L929 452.7L900 392.4Z" fill="#323658" stroke="#F1DAC4"></path><path d="M920 174.3L900 153.4L884 208.1Z" fill="#1f243f" stroke="#F1DAC4"></path><path d="M851 83.9L900 11.9L822 33.7Z" fill="#42446c" stroke="#F1DAC4"></path><path d="M920 174.3L884 208.1L900 223Z" fill="#474973" stroke="#F1DAC4"></path><path d="M-19 401.9L0 470.3L0 447.4Z" fill="#2d3152" stroke="#F1DAC4"></path><path d="M0 447.4L0 470.3L60 404.4Z" fill="#282c4c" stroke="#F1DAC4"></path><path d="M920 174.3L900 145.7L900 153.4Z" fill="#242845" stroke="#F1DAC4"></path><path d="M900 153.4L900 145.7L834 197.4Z" fill="#3c3f66" stroke="#F1DAC4"></path><path d="M15 544.3L68 600L78 546.4Z" fill="#242845" stroke="#F1DAC4"></path><path d="M84 600L68 600L106 610.1Z" fill="#373a5f" stroke="#F1DAC4"></path><path d="M900 145.7L892 117.6L834 197.4Z" fill="#373a5f" stroke="#F1DAC4"></path><path d="M874 567.1L826 475.6L785 523.1Z" fill="#242845" stroke="#F1DAC4"></path><path d="M920 174.3L900 131.6L900 145.7Z" fill="#3c3f66" stroke="#F1DAC4"></path><path d="M900 145.7L900 131.6L892 117.6Z" fill="#242845" stroke="#F1DAC4"></path><path d="M919 300.9L920 174.3L900 238.3Z" fill="#3c3f66" stroke="#F1DAC4"></path><path d="M900 565.3L900 503.3L888 503.3Z" fill="#1f243f" stroke="#F1DAC4"></path><path d="M888 503.3L900 503.3L900 454.6Z" fill="#1f243f" stroke="#F1DAC4"></path><path d="M900 454.6L929 452.7L900 421.9Z" fill="#323658" stroke="#F1DAC4"></path><path d="M0 539.1L15 544.3L0 470.3Z" fill="#1a1f39" stroke="#F1DAC4"></path><path d="M0 470.3L15 544.3L82 535.3Z" fill="#323658" stroke="#F1DAC4"></path><path d="M168 0L57 0L100 66.9Z" fill="#2d3152" stroke="#F1DAC4"></path><path d="M74 65.7L0 70.6L75 113.7Z" fill="#242845" stroke="#F1DAC4"></path><path d="M223 -38.1L57 0L168 0Z" fill="#3c3f66" stroke="#F1DAC4"></path><path d="M803 600L874 567.1L785 523.1Z" fill="#161b33" stroke="#F1DAC4"></path><path d="M900 565.3L929 452.7L900 503.3Z" fill="#42446c" stroke="#F1DAC4"></path><path d="M900 503.3L929 452.7L900 454.6Z" fill="#1a1f39" stroke="#F1DAC4"></path><path d="M919 300.9L929 452.7L920 174.3Z" fill="#373a5f" stroke="#F1DAC4"></path><path d="M57 0L0 70.6L74 65.7Z" fill="#161b33" stroke="#F1DAC4"></path><path d="M0 150.7L-30 50.6L-10 204.4Z" fill="#373a5f" stroke="#F1DAC4"></path><path d="M-35 565.1L0 539.1L0 470.3Z" fill="#161b33" stroke="#F1DAC4"></path><path d="M15 544.3L0 600L68 600Z" fill="#1a1f39" stroke="#F1DAC4"></path><path d="M900 583.1L900 565.3L874 567.1Z" fill="#1a1f39" stroke="#F1DAC4"></path><path d="M874 567.1L900 565.3L888 503.3Z" fill="#242845" stroke="#F1DAC4"></path><path d="M900 600L900 583.1L874 567.1Z" fill="#373a5f" stroke="#F1DAC4"></path><path d="M900 565.3L900 583.1L929 452.7Z" fill="#1a1f39" stroke="#F1DAC4"></path><path d="M900 600L874 567.1L803 600Z" fill="#474973" stroke="#F1DAC4"></path><path d="M223 -38.1L6 0L57 0Z" fill="#161b33" stroke="#F1DAC4"></path><path d="M57 0L6 0L0 70.6Z" fill="#1f243f" stroke="#F1DAC4"></path><path d="M-35 565.1L0 600L0 539.1Z" fill="#242845" stroke="#F1DAC4"></path><path d="M0 539.1L0 600L15 544.3Z" fill="#323658" stroke="#F1DAC4"></path><path d="M68 600L0 600L106 610.1Z" fill="#161b33" stroke="#F1DAC4"></path><path d="M106 610.1L0 600L216 625.1Z" fill="#2d3152" stroke="#F1DAC4"></path><path d="M920 0L892 117.6L900 131.6Z" fill="#323658" stroke="#F1DAC4"></path><path d="M920 0L900 11.9L892 117.6Z" fill="#323658" stroke="#F1DAC4"></path><path d="M892 117.6L900 11.9L851 83.9Z" fill="#161b33" stroke="#F1DAC4"></path><path d="M822 33.7L900 0L783 0Z" fill="#161b33" stroke="#F1DAC4"></path><path d="M783 0L900 0L774 -3.1Z" fill="#282c4c" stroke="#F1DAC4"></path><path d="M618 636.1L900 600L803 600Z" fill="#323658" stroke="#F1DAC4"></path><path d="M900 583.1L900 600L929 452.7Z" fill="#161b33" stroke="#F1DAC4"></path><path d="M0 0L-30 50.6L0 70.6Z" fill="#161b33" stroke="#F1DAC4"></path><path d="M0 70.6L-30 50.6L0 150.7Z" fill="#3c3f66" stroke="#F1DAC4"></path><path d="M-10 204.4L-30 50.6L-19 401.9Z" fill="#1f243f" stroke="#F1DAC4"></path><path d="M0 -0.1L0 0L6 0Z" fill="#42446c" stroke="#F1DAC4"></path><path d="M6 0L0 0L0 70.6Z" fill="#373a5f" stroke="#F1DAC4"></path><path d="M223 -38.1L0 -0.1L6 0Z" fill="#1a1f39" stroke="#F1DAC4"></path><path d="M0 0L0 -0.1L-30 50.6Z" fill="#42446c" stroke="#F1DAC4"></path><path d="M920 0L900 0L900 11.9Z" fill="#161b33" stroke="#F1DAC4"></path><path d="M900 11.9L900 0L822 33.7Z" fill="#161b33" stroke="#F1DAC4"></path><path d="M774 -3.1L920 0L223 -38.1Z" fill="#242845" stroke="#F1DAC4"></path><path d="M-19 401.9L-35 565.1L0 470.3Z" fill="#42446c" stroke="#F1DAC4"></path><path d="M-30 50.6L-35 565.1L-19 401.9Z" fill="#323658" stroke="#F1DAC4"></path><path d="M920 174.3L920 0L900 131.6Z" fill="#42446c" stroke="#F1DAC4"></path><path d="M900 0L920 0L774 -3.1Z" fill="#474973" stroke="#F1DAC4"></path><path d="M929 452.7L920 0L920 174.3Z" fill="#161b33" stroke="#F1DAC4"></path></g></svg>